<?xml version="1.0" encoding="UTF-8" standalone="no"?>
<svg
   width="793.70081"
   height="1122.5197"
   viewBox="0 0 210 297"
   version="1.1"
   id="svg8"
   sodipodi:docname="doughnut.svg"
   inkscape:version="1.3 (0e150ed, 2023-07-21)"
   xmlns:inkscape="http://www.inkscape.org/namespaces/inkscape"
   xmlns:sodipodi="http://sodipodi.sourceforge.net/DTD/sodipodi-0.dtd"
   xmlns="http://www.w3.org/2000/svg"
   xmlns:svg="http://www.w3.org/2000/svg">
  <sodipodi:namedview
     id="namedview1"
     pagecolor="#ffffff"
     bordercolor="#000000"
     borderopacity="0.25"
     inkscape:showpageshadow="2"
     inkscape:pageopacity="0.0"
     inkscape:pagecheckerboard="0"
     inkscape:deskcolor="#d1d1d1"
     inkscape:zoom="0.78751405"
     inkscape:cx="396.81832"
     inkscape:cy="561.25983"
     inkscape:window-width="1392"
     inkscape:window-height="1027"
     inkscape:window-x="41"
     inkscape:window-y="25"
     inkscape:window-maximized="0"
     inkscape:current-layer="svg8" />
  <defs
     id="defs2" />
  <metadata
     id="metadata5" />
  <g
     id="layer1"
     transform="translate(61.147057,-33.933257)">
    <path
       style="opacity:1;fill:#be7b4e;fill-opacity:1;stroke:none;stroke-width:11.3386;stroke-linecap:round;stroke-linejoin:round;stroke-miterlimit:4;stroke-dasharray:none;stroke-dashoffset:0;stroke-opacity:1"
       d="m 150,435.51953 a 137,137 0 0 0 -137,137 137,137 0 0 0 137,137 137,137 0 0 0 137,-137 137,137 0 0 0 -8.76172,-47.72461 20.992632,20.992632 0 0 1 -4.65039,2.73242 20.992632,20.992632 0 0 1 -27.47851,-11.23828 20.992632,20.992632 0 0 1 1.78515,-19.5957 34.055377,34.055377 0 0 1 -32.90625,-20.82422 34.055377,34.055377 0 0 1 -0.74414,-24.23828 A 137,137 0 0 0 150,435.51953 Z m 0,88 a 49.000003,49.000003 0 0 1 49,49 49.000003,49.000003 0 0 1 -49,49 49.000003,49.000003 0 0 1 -49,-49 49.000003,49.000003 0 0 1 49,-49 z"
       transform="scale(0.26458333)"
       id="path815" />
    <path
       style="opacity:1;fill:#683a3a;fill-opacity:1;stroke:none;stroke-width:11.3386;stroke-linecap:round;stroke-linejoin:round;stroke-miterlimit:4;stroke-dasharray:none;stroke-dashoffset:0;stroke-opacity:1"
       d="m 150,429.15625 c -76.620452,0.0449 -139.66273,60.32924 -143.1328125,136.87109 0.7071068,10.42983 5.3963095,25.47049 15.3203125,23.56641 11.621884,-2.22984 20.374789,-39.11841 31.605469,-39.07422 11.23068,0.0442 8.93916,37.7715 30.472656,39.27344 9.993837,0.69706 14.391545,-13.15903 14.921875,-23.76563 3.26562,-25.58175 25.02317,-44.75759 50.8125,-44.7832 25.78412,0.0325 47.53387,19.20661 50.79883,44.7832 3.88909,11.13693 9.39975,23.54927 18.98633,23.76563 15.52187,0.35031 15.18432,-39.37399 27.16406,-39.1582 11.14417,0.20074 13.80335,35.70983 27.89844,36.57226 9.56987,0.58555 14.65587,-12.34086 18.1914,-21.17969 -0.82918,-18.28994 -5.06725,-35.64862 -12.07226,-51.48242 a 20.992632,20.992632 0 0 1 -12.41211,15.09375 20.992632,20.992632 0 0 1 -27.47852,-11.23828 20.992632,20.992632 0 0 1 1.78516,-19.5957 34.055377,34.055377 0 0 1 -32.90625,-20.82422 34.055377,34.055377 0 0 1 4.2207,-33.58789 C 194.84684,434.66683 173.04113,429.18483 150,429.15625 Z"
       transform="scale(0.26458333)"
       id="path945" />
    <path
       style="opacity:0.3654;fill:#f3f1f1;fill-opacity:1;stroke:none;stroke-width:11.3386;stroke-linecap:round;stroke-linejoin:round;stroke-miterlimit:4;stroke-dasharray:none;stroke-dashoffset:0;stroke-opacity:1"
       d="m 53.792969,550.51953 c -6.386244,-0.0251 -11.973301,11.88613 -17.740235,22.58203 -1.208325,23.28315 4.607214,46.56688 19.388672,66.03125 46.810094,69.83127 171.678324,59.09294 200.369144,-21.66211 5.42949,-12.69739 8.06206,-26.14112 8.27734,-39.61718 -5.94043,-10.79535 -9.59953,-27.08295 -17.13867,-27.21875 -6.89683,-0.12424 -9.71978,12.97547 -13.82813,24.05859 0.95223,27.11541 -9.2783,53.89545 -33.71289,69.21875 C 144.78371,684.64708 58.407379,630.40875 64.007812,566.3125 61.107216,557.96354 58.75101,550.53904 53.792969,550.51953 Z"
       transform="scale(0.26458333)"
       id="path829" />
    <path
       style="color:#000000;font-style:normal;font-variant:normal;font-weight:normal;font-stretch:normal;font-size:medium;line-height:normal;font-family:sans-serif;font-variant-ligatures:normal;font-variant-position:normal;font-variant-caps:normal;font-variant-numeric:normal;font-variant-alternates:normal;font-feature-settings:normal;text-indent:0;text-align:start;text-decoration:none;text-decoration-line:none;text-decoration-style:solid;text-decoration-color:#000000;letter-spacing:normal;word-spacing:normal;text-transform:none;writing-mode:lr-tb;direction:ltr;text-orientation:mixed;dominant-baseline:auto;baseline-shift:baseline;text-anchor:start;white-space:normal;shape-padding:0;clip-rule:nonzero;display:inline;overflow:visible;visibility:visible;opacity:1;isolation:auto;mix-blend-mode:normal;color-interpolation:sRGB;color-interpolation-filters:linearRGB;solid-color:#000000;solid-opacity:1;vector-effect:none;fill:#333333;fill-opacity:1;fill-rule:nonzero;stroke:none;stroke-width:11.3386;stroke-linecap:round;stroke-linejoin:round;stroke-miterlimit:4;stroke-dasharray:none;stroke-dashoffset:0;stroke-opacity:1;color-rendering:auto;image-rendering:auto;shape-rendering:auto;text-rendering:auto;enable-background:accumulate"
       d="M 149.99609,423.48633 C 70.403768,423.53297 4.8078013,486.26081 1.203125,565.77148 a 5.6698583,5.6698583 0 0 0 0.00781,0.63868 c 0.3983162,5.87516 1.7708071,12.73942 4.8261719,18.63476 1.5276824,2.94769 3.5029571,5.71988 6.3964851,7.76563 2.893527,2.04574 6.903657,3.10342 10.822264,2.35156 5.616965,-1.0777 8.894613,-5.14876 11.84375,-9.37695 2.949138,-4.22824 5.528022,-9.18817 8.042969,-13.92188 2.514947,-4.73367 4.979225,-9.2461 7.164063,-12.19726 1.90134,-2.56827 3.110793,-3.16537 3.255859,-3.3125 0.324888,0.35074 0.928705,1.17677 1.583984,2.55078 1.390991,2.91666 2.861308,7.64321 4.695313,12.65429 1.834004,5.01105 4.048032,10.39243 7.724609,15.00391 3.676577,4.61148 9.270908,8.3961 16.304688,8.88672 3.827777,0.26683 7.510513,-0.98425 10.263672,-3.04492 2.753159,-2.06064 4.698825,-4.77483 6.183597,-7.66602 2.91545,-5.6771 4.18042,-12.21989 4.50781,-18.09766 2.95615,-22.74117 22.22888,-39.69988 45.17188,-39.72656 22.97491,0.0302 42.26841,17.04141 45.17773,39.83203 a 5.6698583,5.6698583 0 0 0 0.27149,1.15039 c 2.00321,5.7365 4.42566,11.98844 8.01367,17.28711 3.588,5.29871 8.98359,10.11453 16.19726,10.27735 6.29628,0.14211 11.14823,-4.11778 14.01758,-8.62305 2.86935,-4.50527 4.68529,-9.74505 6.38672,-14.74805 1.70143,-5.00292 3.27835,-9.79818 4.81445,-12.78711 0.76806,-1.49446 1.52873,-2.48518 1.92188,-2.84375 0.0799,-0.0729 0.0481,-0.0532 0.0801,-0.0859 0.0501,0.0372 0.0701,0.0494 0.21875,0.17578 0.45801,0.38937 1.24923,1.32552 2.07812,2.69726 1.65778,2.74356 3.46345,7.08097 5.39649,11.64063 1.93303,4.55966 3.99463,9.3627 6.88476,13.51172 2.89014,4.14894 7.16494,8.10702 13.04492,8.46679 7.38443,0.45181 12.94584,-4.47576 16.38672,-9.51757 3.44088,-5.04182 5.65212,-10.80996 7.41406,-15.21485 a 5.6698583,5.6698583 0 0 0 0.40039,-2.36133 c -0.94037,-20.74276 -6.10608,-40.34037 -14.63281,-57.98437 a 20.992632,20.992632 0 0 1 -5.59961,15.67383 c 4.95897,13.03444 8.00928,27.0331 8.79492,41.66797 -1.66971,4.13737 -3.57273,8.64732 -5.74218,11.82617 -2.37834,3.48487 -4.14464,4.72747 -6.33008,4.59375 -1.16756,-0.0714 -2.51064,-0.87512 -4.43164,-3.63281 -1.921,-2.75774 -3.86329,-7.00469 -5.75,-11.45508 -1.88671,-4.4504 -3.71524,-9.08236 -6.13086,-13.08008 -1.20781,-1.99888 -2.56392,-3.87639 -4.43945,-5.4707 -1.87553,-1.59432 -4.49503,-2.89121 -7.39063,-2.94336 -3.06302,-0.0552 -5.95057,1.34411 -7.89258,3.11523 -1.942,1.77113 -3.23974,3.84531 -4.36718,6.03906 -2.25492,4.38758 -3.81107,9.46129 -5.4629,14.31836 -1.65181,4.85707 -3.40959,9.46909 -5.21679,12.30664 -1.80721,2.8376 -2.73261,3.41194 -4.19727,3.37891 -2.37289,-0.0537 -4.52806,-1.55317 -7.06445,-5.29883 -2.52206,-3.72453 -4.78445,-9.20685 -6.66406,-14.57812 -4.09516,-27.81362 -27.95582,-48.63823 -56.17774,-48.67383 a 5.6698583,5.6698583 0 0 0 -0.0137,0 c -28.59645,0.0302 -52.808615,21.36807 -56.42969,49.73437 a 5.6698583,5.6698583 0 0 0 -0.03906,0.43555 c -0.23229,4.64561 -1.432429,10.19155 -3.292969,13.81445 -0.930274,1.81149 -1.991808,3.09486 -2.890625,3.76758 -0.898813,0.67276 -1.512497,0.89211 -2.681641,0.81055 -3.732967,-0.26041 -5.927479,-1.75642 -8.228515,-4.64258 -2.301037,-2.88616 -4.252744,-7.22005 -5.941407,-11.83398 -1.688662,-4.61398 -3.098454,-9.42021 -5.109375,-13.63672 -1.00546,-2.1083 -2.152275,-4.12407 -3.958984,-5.9043 -1.806709,-1.78023 -4.616179,-3.25774 -7.607422,-3.26953 -5.914087,-0.0227 -9.642973,4.04761 -12.621094,8.07031 -2.97812,4.02274 -5.532681,8.86333 -8.0625,13.625 -2.529818,4.76172 -5.020409,9.43972 -7.332031,12.75391 -2.311621,3.31419 -4.485711,4.68933 -4.679687,4.72656 -1.043395,0.20032 -1.341767,0.0922 -2.140625,-0.47266 -0.798859,-0.56477 -1.901576,-1.84633 -2.875,-3.72461 -1.911346,-3.68794 -3.197685,-9.39643 -3.53711,-13.91406 C 16.089524,492.5232 76.473914,434.87542 149.99219,434.82617 h 0.0117 c 22.64057,0.0299 44.02649,5.52762 62.88867,15.25977 a 34.055377,34.055377 0 0 1 6.22851,-9.50782 c -20.68514,-10.89385 -44.21205,-17.0609 -69.11328,-17.09179 a 5.6698583,5.6698583 0 0 0 -0.0117,0 z"
       transform="scale(0.26458333)"
       id="path941" />
    <path
       style="opacity:0.3654;fill:#f2f2f2;fill-opacity:1;stroke:none;stroke-width:11.3386;stroke-linecap:round;stroke-linejoin:round;stroke-miterlimit:4;stroke-dasharray:none;stroke-dashoffset:0;stroke-opacity:1"
       d="m 152.21484,457.23242 c -1.1692,0.009 -2.34333,0.0384 -3.52148,0.0899 -53.119175,-1.07982 -94.98898,41.34077 -108.207032,90.26171 8.695963,-7.25158 20.814302,-9.15484 27.072266,1.67774 0.598514,-1.71387 1.24851,-3.42815 1.99414,-5.14258 13.761774,-33.4097 48.565556,-57.92409 85.097656,-56.75976 39.37804,0.0232 66.88936,31.4423 75.5293,67.35937 5.3807,-10.05724 13.615,-17.61633 25.15234,-10.93945 2.3688,1.34332 4.23222,3.25147 5.78516,5.47851 -1.36437,-5.57401 -3.14428,-11.05181 -5.26758,-16.39843 a 20.992632,20.992632 0 0 1 -18.64453,-12.83594 20.992632,20.992632 0 0 1 0.99219,-18.23633 c -0.35598,-0.46239 -0.72966,-0.90991 -1.0918,-1.36719 a 34.055377,34.055377 0 0 1 -31.02149,-20.8164 34.055377,34.055377 0 0 1 -2.26757,-8.34961 c -15.38651,-8.96724 -32.90489,-14.16953 -51.60157,-14.02149 z"
       id="path882"
       transform="scale(0.26458333)" />
    <rect
       ry="0.75269383"
       y="113.31458"
       x="-72.878677"
       height="1.5053877"
       width="7.0445309"
       id="rect949"
       style="opacity:1;fill:#ff00ff;fill-opacity:1;stroke:none;stroke-width:3;stroke-linecap:round;stroke-linejoin:round;stroke-miterlimit:4;stroke-dasharray:none;stroke-dashoffset:0;stroke-opacity:1"
       transform="rotate(-39.585243)" />
    <rect
       ry="0.75269383"
       y="119.18613"
       x="-41.351593"
       height="1.5053877"
       width="7.0445309"
       id="rect951"
       style="opacity:1;fill:#ffff00;fill-opacity:1;stroke:none;stroke-width:3;stroke-linecap:round;stroke-linejoin:round;stroke-miterlimit:4;stroke-dasharray:none;stroke-dashoffset:0;stroke-opacity:1"
       transform="rotate(-27.747261)" />
    <rect
       ry="0.75269383"
       y="103.00478"
       x="75.164841"
       height="1.5053877"
       width="7.0445309"
       id="rect953"
       style="opacity:1;fill:#d45500;fill-opacity:1;stroke:none;stroke-width:3;stroke-linecap:round;stroke-linejoin:round;stroke-miterlimit:4;stroke-dasharray:none;stroke-dashoffset:0;stroke-opacity:1"
       transform="rotate(22.224912)" />
    <rect
       ry="0.75269383"
       y="120.95962"
       x="-67.430504"
       height="1.5053877"
       width="7.0445309"
       id="rect955"
       style="opacity:1;fill:#00ff00;fill-opacity:1;stroke:none;stroke-width:3;stroke-linecap:round;stroke-linejoin:round;stroke-miterlimit:4;stroke-dasharray:none;stroke-dashoffset:0;stroke-opacity:1"
       transform="rotate(-41.288469)" />
    <rect
       ry="0.75269383"
       y="67.315826"
       x="122.15926"
       height="1.5053877"
       width="7.0445309"
       id="rect957"
       style="opacity:1;fill:#0044aa;fill-opacity:1;stroke:none;stroke-width:3;stroke-linecap:round;stroke-linejoin:round;stroke-miterlimit:4;stroke-dasharray:none;stroke-dashoffset:0;stroke-opacity:1"
       transform="rotate(43.078831)" />
    <rect
       ry="0.75269383"
       y="71.914986"
       x="134.327"
       height="1.5053877"
       width="7.0445309"
       id="rect959"
       style="opacity:1;fill:#aa00d4;fill-opacity:1;stroke:none;stroke-width:3;stroke-linecap:round;stroke-linejoin:round;stroke-miterlimit:4;stroke-dasharray:none;stroke-dashoffset:0;stroke-opacity:1"
       transform="rotate(40.757536)" />
    <rect
       ry="0.75269383"
       y="141.6834"
       x="-79.997414"
       height="1.5053877"
       width="7.0445309"
       id="rect961"
       style="opacity:1;fill:#ff0066;fill-opacity:1;stroke:none;stroke-width:3;stroke-linecap:round;stroke-linejoin:round;stroke-miterlimit:4;stroke-dasharray:none;stroke-dashoffset:0;stroke-opacity:1"
       transform="rotate(-54.653308)" />
    <rect
       ry="0.75269383"
       y="-110.01128"
       x="94.413506"
       height="1.5053877"
       width="7.0445309"
       id="rect963"
       style="opacity:1;fill:#0000ff;fill-opacity:1;stroke:none;stroke-width:3;stroke-linecap:round;stroke-linejoin:round;stroke-miterlimit:4;stroke-dasharray:none;stroke-dashoffset:0;stroke-opacity:1"
       transform="rotate(135.21919)" />
    <rect
       ry="0.75269383"
       y="122.02272"
       x="-81.871895"
       height="1.5053877"
       width="7.0445309"
       id="rect965"
       style="opacity:1;fill:#2ad4ff;fill-opacity:1;stroke:none;stroke-width:3;stroke-linecap:round;stroke-linejoin:round;stroke-miterlimit:4;stroke-dasharray:none;stroke-dashoffset:0;stroke-opacity:1"
       transform="rotate(-55.16334)" />
    <rect
       ry="0.75269383"
       y="124.9537"
       x="-58.880093"
       height="1.5053877"
       width="7.0445309"
       id="rect967"
       style="opacity:1;fill:#48373e;fill-opacity:1;stroke:none;stroke-width:3;stroke-linecap:round;stroke-linejoin:round;stroke-miterlimit:4;stroke-dasharray:none;stroke-dashoffset:0;stroke-opacity:1"
       transform="rotate(-44.857835)" />
    <rect
       ry="0.75269383"
       y="53.050171"
       x="111.03257"
       height="1.5053877"
       width="7.0445309"
       id="rect969"
       style="opacity:1;fill:#71c837;fill-opacity:1;stroke:none;stroke-width:3;stroke-linecap:round;stroke-linejoin:round;stroke-miterlimit:4;stroke-dasharray:none;stroke-dashoffset:0;stroke-opacity:1"
       transform="rotate(45.133069)" />
    <rect
       ry="0.75269383"
       y="112.76263"
       x="85.837067"
       height="1.5053877"
       width="7.0445309"
       id="rect971"
       style="opacity:1;fill:#ff0000;fill-opacity:1;stroke:none;stroke-width:3;stroke-linecap:round;stroke-linejoin:round;stroke-miterlimit:4;stroke-dasharray:none;stroke-dashoffset:0;stroke-opacity:1"
       transform="rotate(29.508986)" />
    <rect
       ry="0.75269383"
       y="114.15213"
       x="71.844765"
       height="1.5053877"
       width="7.0445309"
       id="rect973"
       style="opacity:1;fill:#00ff00;fill-opacity:1;stroke:none;stroke-width:3;stroke-linecap:round;stroke-linejoin:round;stroke-miterlimit:4;stroke-dasharray:none;stroke-dashoffset:0;stroke-opacity:1"
       transform="rotate(29.10942)" />
    <rect
       style="opacity:1;fill:#ff5555;fill-opacity:1;stroke:none;stroke-width:3;stroke-linecap:round;stroke-linejoin:round;stroke-miterlimit:4;stroke-dasharray:none;stroke-dashoffset:0;stroke-opacity:1"
       id="rect947"
       width="7.0445309"
       height="1.5053877"
       x="-46.467106"
       y="114.49216"
       ry="0.75269383"
       transform="rotate(-35.666575)" />
  </g>
</svg>
